<?xml version="1.0" encoding="utf-8"?>
<!-- Generator: Adobe Illustrator 28.0.0, SVG Export Plug-In . SVG Version: 6.00 Build 0)  -->
<svg version="1.1" id="Layer_1" xmlns="http://www.w3.org/2000/svg" xmlns:xlink="http://www.w3.org/1999/xlink" x="0px" y="0px"
	 viewBox="0 0 652.6 652.8" style="enable-background:new 0 0 652.6 652.8;" xml:space="preserve">
<style type="text/css">
	.st0{fill:#FFFFFF;}
	.st1{fill:#171E2E;}
	.st2{opacity:0.3;}
	.st3{fill:#82B034;}
	.st4{fill:none;stroke:#82B040;stroke-width:2.0672;stroke-miterlimit:10;}
	.st5{fill:none;stroke:#231F20;stroke-width:0.7501;stroke-miterlimit:10;}
	.st6{fill:none;stroke:#231F20;stroke-width:0.5802;stroke-miterlimit:10;}
	.st7{fill:#231F20;}
	.st8{fill:#3D3D3D;}
	.st9{fill:#227271;}
	.st10{fill:#18343F;}
	.st11{fill:#1E1E1E;}
	.st12{fill:#959595;}
</style>
<path class="st0" d="M459.5,91.7h-260c-61.7,0-111.7,50-111.7,111.7v260c0,61.7,50,111.7,111.7,111.7h260
	c61.7,0,111.7-50,111.7-111.7v-260C571.2,141.7,521.2,91.7,459.5,91.7z M511.2,363.5c0,8.8-7.2,16-16,16h-86l-54.2,122.3
	c-5.6,12.7-24.7,8.7-24.7-5.2V379.5h-26.5H163.7c-8.8,0-16-7.2-16-16v-154c0-13,17-17.8,23.9-6.8L241,314.4c5.4,8.7,18,8.8,23.6,0.2
	l42.1-64.7c7-10.8,23.7-5.8,23.7,7v122.5h78.9l77.3-174.6c5.6-12.7,24.7-8.7,24.7,5.2V363.5z"/>
</svg>
